<svg width="370" height="448" viewBox="0 0 370 448" fill="none" xmlns="http://www.w3.org/2000/svg">
<g filter="url(#filter0_i_656_16)">
<path d="M307.755 11.9954L293.321 12.8359L357.636 68.5839L355.794 53.0191C354.982 46.1607 351.665 39.8443 346.479 35.2835L327.873 18.9219C322.34 14.0558 315.111 11.5671 307.755 11.9954Z" fill="#FFFF3F" fill-opacity="0.37"/>
</g>
<path d="M283.046 6.75046L315.898 33.4024L360.384 71.9291C365.539 76.3928 368.5 82.875 368.5 89.6934V423C368.5 435.979 357.979 446.5 345 446.5H38.9095C33.2202 446.5 27.724 444.436 23.441 440.691L14.7847 433.122L8.88498 427.564C4.17193 423.123 1.5 416.935 1.5 410.46V25C1.5 12.0213 12.0213 1.5 25 1.5H268.241C273.632 1.5 278.859 3.35379 283.046 6.75046Z" fill="#C4C4C4" fill-opacity="0.04" stroke="#FFFF3F" stroke-width="3"/>
<defs>
<filter id="filter0_i_656_16" x="293.321" y="11.9482" width="64.3152" height="58.6357" filterUnits="userSpaceOnUse" color-interpolation-filters="sRGB">
<feFlood flood-opacity="0" result="BackgroundImageFix"/>
<feBlend mode="normal" in="SourceGraphic" in2="BackgroundImageFix" result="shape"/>
<feColorMatrix in="SourceAlpha" type="matrix" values="0 0 0 0 0 0 0 0 0 0 0 0 0 0 0 0 0 0 127 0" result="hardAlpha"/>
<feOffset dy="2"/>
<feGaussianBlur stdDeviation="2"/>
<feComposite in2="hardAlpha" operator="arithmetic" k2="-1" k3="1"/>
<feColorMatrix type="matrix" values="0 0 0 0 1 0 0 0 0 1 0 0 0 0 0.247059 0 0 0 0.85 0"/>
<feBlend mode="normal" in2="shape" result="effect1_innerShadow_656_16"/>
</filter>
</defs>
</svg>
