<svg width="24" height="24" viewBox="0 0 24 24" fill="none" xmlns="http://www.w3.org/2000/svg">
<path d="M0.862871 0.862871C1.28481 0.441061 1.857 0.204102 2.45362 0.204102C3.05024 0.204102 3.62243 0.441061 4.04437 0.862871L12.0004 8.81887L19.9564 0.862871C20.3807 0.453015 20.9491 0.226228 21.539 0.231354C22.129 0.236481 22.6933 0.473111 23.1105 0.890279C23.5276 1.30745 23.7643 1.87178 23.7694 2.46172C23.7745 3.05166 23.5477 3.62002 23.1379 4.04437L15.1819 12.0004L23.1379 19.9564C23.5477 20.3807 23.7745 20.9491 23.7694 21.539C23.7643 22.129 23.5276 22.6933 23.1105 23.1105C22.6933 23.5276 22.129 23.7643 21.539 23.7694C20.9491 23.7745 20.3807 23.5477 19.9564 23.1379L12.0004 15.1819L4.04437 23.1379C3.62002 23.5477 3.05166 23.7745 2.46172 23.7694C1.87178 23.7643 1.30745 23.5276 0.890279 23.1105C0.473111 22.6933 0.236481 22.129 0.231354 21.539C0.226228 20.9491 0.453015 20.3807 0.862871 19.9564L8.81887 12.0004L0.862871 4.04437C0.441061 3.62243 0.204102 3.05024 0.204102 2.45362C0.204102 1.857 0.441061 1.28481 0.862871 0.862871V0.862871Z" fill="white"/>
</svg>
