<svg width="386" height="65" viewBox="0 0 386 65" fill="none" xmlns="http://www.w3.org/2000/svg">
<mask id="mask0_2646_353" style="mask-type:alpha" maskUnits="userSpaceOnUse" x="0" y="0" width="386" height="65">
<rect x="0.890411" y="0.890411" width="384.219" height="63.2192" rx="6.26148" fill="url(#paint0_linear_2646_353)" stroke="#FFF61B" stroke-width="1.78082"/>
</mask>
<g mask="url(#mask0_2646_353)">
<rect opacity="0.27" x="-18.6553" y="-32.0547" width="45.4109" height="127.329" transform="rotate(32.077 -18.6553 -32.0547)" fill="url(#paint1_linear_2646_353)"/>
<rect opacity="0.27" x="65.9336" y="-32.0547" width="45.4109" height="127.329" transform="rotate(32.077 65.9336 -32.0547)" fill="url(#paint2_linear_2646_353)"/>
<rect opacity="0.27" x="150.523" y="-32.0547" width="45.4109" height="127.329" transform="rotate(32.077 150.523 -32.0547)" fill="url(#paint3_linear_2646_353)"/>
<rect opacity="0.27" x="235.112" y="-32.0547" width="45.4109" height="127.329" transform="rotate(32.077 235.112 -32.0547)" fill="url(#paint4_linear_2646_353)"/>
<rect opacity="0.27" x="319.619" y="-32.0547" width="45.4109" height="127.329" transform="rotate(32.077 319.619 -32.0547)" fill="url(#paint5_linear_2646_353)"/>
<rect opacity="0.27" x="404.126" y="-32.0547" width="45.4109" height="127.329" transform="rotate(32.077 404.126 -32.0547)" fill="url(#paint6_linear_2646_353)"/>
<g opacity="0.58" filter="url(#filter0_f_2646_353)">
<circle cx="76.226" cy="107.294" r="83.2534" fill="#11FF0C"/>
</g>
</g>
<defs>
<filter id="filter0_f_2646_353" x="-75.589" y="-44.5206" width="303.63" height="303.63" filterUnits="userSpaceOnUse" color-interpolation-filters="sRGB">
<feFlood flood-opacity="0" result="BackgroundImageFix"/>
<feBlend mode="normal" in="SourceGraphic" in2="BackgroundImageFix" result="shape"/>
<feGaussianBlur stdDeviation="34.2808" result="effect1_foregroundBlur_2646_353"/>
</filter>
<linearGradient id="paint0_linear_2646_353" x1="193" y1="0" x2="193" y2="65" gradientUnits="userSpaceOnUse">
<stop stop-color="#FFA12A"/>
<stop offset="1" stop-color="#FEEF6D"/>
</linearGradient>
<linearGradient id="paint1_linear_2646_353" x1="4.0502" y1="-32.0547" x2="4.0502" y2="95.274" gradientUnits="userSpaceOnUse">
<stop stop-color="#BE460D"/>
<stop offset="1" stop-color="#E6D156"/>
</linearGradient>
<linearGradient id="paint2_linear_2646_353" x1="88.6391" y1="-32.0547" x2="88.6391" y2="95.274" gradientUnits="userSpaceOnUse">
<stop stop-color="#BE460D"/>
<stop offset="1" stop-color="#E6D156"/>
</linearGradient>
<linearGradient id="paint3_linear_2646_353" x1="173.229" y1="-32.0547" x2="173.229" y2="95.274" gradientUnits="userSpaceOnUse">
<stop stop-color="#BE460D"/>
<stop offset="1" stop-color="#E6D156"/>
</linearGradient>
<linearGradient id="paint4_linear_2646_353" x1="257.818" y1="-32.0547" x2="257.818" y2="95.274" gradientUnits="userSpaceOnUse">
<stop stop-color="#BE460D"/>
<stop offset="1" stop-color="#E6D156"/>
</linearGradient>
<linearGradient id="paint5_linear_2646_353" x1="342.325" y1="-32.0547" x2="342.325" y2="95.274" gradientUnits="userSpaceOnUse">
<stop stop-color="#BE460D"/>
<stop offset="1" stop-color="#E6D156"/>
</linearGradient>
<linearGradient id="paint6_linear_2646_353" x1="426.831" y1="-32.0547" x2="426.831" y2="95.274" gradientUnits="userSpaceOnUse">
<stop stop-color="#BE460D"/>
<stop offset="1" stop-color="#E6D156"/>
</linearGradient>
</defs>
</svg>
