<svg width="147" height="36" viewBox="0 0 147 36" fill="none" xmlns="http://www.w3.org/2000/svg">
<path d="M30.874 22.562L37.324 3.9H44.548L31.906 35.677L22.403 16.026L12.9 35.677L0.258 3.9H7.525L14.018 22.562L22.403 2.395L30.874 22.562ZM60.3717 21.96C60.3717 20.67 60.1137 19.681 59.5977 18.993C59.1103 18.2763 58.279 17.918 57.1037 17.918C55.957 17.918 55.011 18.2763 54.2657 18.993C53.5203 19.7097 53.1477 20.6987 53.1477 21.96V34H47.5577V0.459999H53.1477V17.101C53.721 16.0117 54.5093 15.1517 55.5127 14.521C56.5447 13.8903 57.763 13.575 59.1677 13.575C61.4897 13.575 63.1953 14.2343 64.2847 15.553C65.4027 16.843 65.9617 18.7207 65.9617 21.186V34H60.3717V21.96ZM73.2152 19.81L71.1512 16.026C72.1832 15.4813 73.4446 14.9653 74.9352 14.478C76.4259 13.962 78.0886 13.704 79.9232 13.704C81.6146 13.704 83.1196 13.9477 84.4382 14.435C85.7569 14.9223 86.7889 15.639 87.5342 16.585C88.3082 17.5023 88.6952 18.6347 88.6952 19.982V34H83.2772V31.291C82.6752 32.323 81.7579 33.1113 80.5252 33.656C79.3212 34.172 78.0599 34.43 76.7412 34.43C75.4799 34.43 74.3189 34.1863 73.2582 33.699C72.1976 33.2117 71.3519 32.5093 70.7212 31.592C70.0906 30.646 69.7752 29.4993 69.7752 28.152C69.7752 26.26 70.4489 24.755 71.7962 23.637C73.1436 22.4903 75.0499 21.917 77.5152 21.917C78.7766 21.917 79.8802 22.046 80.8262 22.304C81.8009 22.562 82.6179 22.863 83.2772 23.207V21.186C83.2772 20.0967 82.9189 19.3083 82.2022 18.821C81.5142 18.3337 80.5539 18.09 79.3212 18.09C77.9452 18.09 76.6839 18.305 75.5372 18.735C74.3906 19.165 73.6166 19.5233 73.2152 19.81ZM75.4082 27.808C75.4082 28.6967 75.7092 29.3847 76.3112 29.872C76.9132 30.3307 77.6872 30.56 78.6332 30.56C79.8946 30.56 80.9839 30.1873 81.9012 29.442C82.8186 28.668 83.2772 27.55 83.2772 26.088C81.9872 25.5147 80.5826 25.228 79.0632 25.228C77.7732 25.228 76.8416 25.4573 76.2682 25.916C75.6949 26.346 75.4082 26.9767 75.4082 27.808ZM91.2961 14.22H94.6931V7.34H100.111V14.22H103.551V18.95H100.111V34H94.6931V18.95H91.2961V14.22ZM119.106 6.566C119.106 5.64867 119.422 4.889 120.052 4.287C120.712 3.685 121.514 3.384 122.46 3.384C123.406 3.384 124.195 3.685 124.825 4.287C125.485 4.889 125.814 5.64867 125.814 6.566C125.814 7.45466 125.485 8.21433 124.825 8.845C124.195 9.447 123.406 9.748 122.46 9.748C121.514 9.748 120.712 9.447 120.052 8.845C119.422 8.21433 119.106 7.45466 119.106 6.566ZM119.708 14.22H125.126V34H119.708V14.22ZM132.027 27.163C133.288 28.3097 134.421 29.141 135.424 29.657C136.427 30.1443 137.359 30.388 138.219 30.388C139.738 30.388 140.498 29.786 140.498 28.582C140.498 27.8367 140.14 27.249 139.423 26.819C138.735 26.3603 137.66 25.8873 136.198 25.4C135.281 25.0847 134.392 24.6977 133.532 24.239C132.672 23.7517 131.97 23.121 131.425 22.347C130.88 21.5443 130.608 20.5267 130.608 19.294C130.608 17.488 131.282 16.1263 132.629 15.209C134.005 14.263 135.682 13.79 137.66 13.79C139.323 13.79 140.842 14.091 142.218 14.693C143.594 15.295 144.769 16.0547 145.744 16.972L143.293 20.498C142.576 19.724 141.716 19.0933 140.713 18.606C139.71 18.09 138.749 17.832 137.832 17.832C137.201 17.832 136.7 17.961 136.327 18.219C135.954 18.477 135.768 18.8353 135.768 19.294C135.768 20.0107 136.184 20.5553 137.015 20.928C137.846 21.3007 138.921 21.745 140.24 22.261C141.301 22.6623 142.275 23.121 143.164 23.637C144.053 24.1243 144.755 24.7407 145.271 25.486C145.816 26.2313 146.088 27.206 146.088 28.41C146.088 30.388 145.443 31.936 144.153 33.054C142.892 34.1433 141.129 34.688 138.864 34.688C136.771 34.688 134.922 34.2867 133.317 33.484C131.74 32.6813 130.407 31.7353 129.318 30.646L132.027 27.163Z" fill="url(#paint0_linear_1507_209)"/>
<defs>
<linearGradient id="paint0_linear_1507_209" x1="74" y1="-12" x2="74" y2="50" gradientUnits="userSpaceOnUse">
<stop stop-color="#D2D8DE"/>
<stop offset="0.239583" stop-color="#FEFFFF"/>
<stop offset="0.505208" stop-color="#C0C3C6"/>
<stop offset="0.796875" stop-color="#B6BBBF"/>
<stop offset="0.984375" stop-color="#ACB2B7"/>
</linearGradient>
</defs>
</svg>
